<?xml version="1.0" encoding="UTF-8" standalone="no"?><!-- Generator: Gravit.io --><svg xmlns="http://www.w3.org/2000/svg" xmlns:xlink="http://www.w3.org/1999/xlink" style="isolation:isolate" viewBox="0 0 863.6 363.9" width="863.6pt" height="363.9pt"><defs><clipPath id="_clipPath_9VYX3sL7I4GXMJGWKgXNKYhkSiT88yGf"><rect width="863.6" height="363.9"/></clipPath></defs><g clip-path="url(#_clipPath_9VYX3sL7I4GXMJGWKgXNKYhkSiT88yGf)"><g><g><g><path d=" M 49.962 213.998 L 8.015 172.318 L 8.015 172.318 Q 6.679 170.982 5.276 169.513 L 5.276 169.513 L 5.276 169.513 Q 3.874 168.043 2.671 166.306 L 2.671 166.306 L 2.671 166.306 Q 1.469 164.57 0.734 162.7 L 0.734 162.7 L 0.734 162.7 Q 0 160.829 0 158.692 L 0 158.692 L 0 158.692 Q 0 154.818 2.404 151.678 L 2.404 151.678 L 2.404 151.678 Q 4.809 148.539 8.282 145.066 L 8.282 145.066 L 50.229 103.386 L 50.229 103.386 Q 53.302 100.313 56.575 97.842 L 56.575 97.842 L 56.575 97.842 Q 59.848 95.37 63.856 95.37 L 63.856 95.37 L 63.856 95.37 Q 66.527 95.37 69.333 96.84 L 69.333 96.84 L 69.333 96.84 Q 72.138 98.309 75.344 101.515 L 75.344 101.515 L 75.344 101.515 Q 78.417 104.588 79.686 107.193 L 79.686 107.193 L 79.686 107.193 Q 80.955 109.798 80.955 112.47 L 80.955 112.47 L 80.955 112.47 Q 80.955 116.477 78.617 119.884 L 78.617 119.884 L 78.617 119.884 Q 76.279 123.291 73.207 126.363 L 73.207 126.363 L 40.344 158.959 L 72.94 191.021 L 72.94 191.021 Q 76.146 194.227 78.551 197.5 L 78.551 197.5 L 78.551 197.5 Q 80.955 200.773 80.955 204.647 L 80.955 204.647 L 80.955 204.647 Q 80.955 207.319 79.619 210.124 L 79.619 210.124 L 79.619 210.124 Q 78.283 212.929 74.81 216.403 L 74.81 216.403 L 74.81 216.403 Q 71.737 219.475 69.132 220.744 L 69.132 220.744 L 69.132 220.744 Q 66.527 222.014 63.856 222.014 L 63.856 222.014 L 63.856 222.014 Q 59.982 222.014 56.575 219.609 L 56.575 219.609 L 56.575 219.609 Q 53.168 217.204 49.962 213.998 L 49.962 213.998 L 49.962 213.998 Z  M 210.003 76.668 L 145.078 228.96 L 145.078 228.96 Q 144.01 231.231 142.741 233.569 L 142.741 233.569 L 142.741 233.569 Q 141.471 235.907 139.668 237.844 L 139.668 237.844 L 139.668 237.844 Q 137.864 239.781 135.527 241.05 L 135.527 241.05 L 135.527 241.05 Q 133.189 242.319 130.116 242.319 L 130.116 242.319 L 130.116 242.319 Q 126.777 242.319 122.635 240.449 L 122.635 240.449 L 122.635 240.449 Q 117.158 238.044 114.753 235.105 L 114.753 235.105 L 114.753 235.105 Q 112.349 232.166 111.948 228.96 L 111.948 228.96 L 111.948 228.96 Q 111.948 225.086 112.816 222.281 L 112.816 222.281 L 112.816 222.281 Q 113.685 219.475 114.887 216.403 L 114.887 216.403 L 180.079 63.843 L 180.079 63.843 Q 181.014 61.705 182.083 59.434 L 182.083 59.434 L 182.083 59.434 Q 183.152 57.163 184.621 55.36 L 184.621 55.36 L 184.621 55.36 Q 186.091 53.557 188.028 52.287 L 188.028 52.287 L 188.028 52.287 Q 189.965 51.018 192.636 50.751 L 192.636 50.751 L 192.636 50.751 Q 195.442 50.751 197.78 51.152 L 197.78 51.152 L 197.78 51.152 Q 200.117 51.553 202.789 52.621 L 202.789 52.621 L 202.789 52.621 Q 207.999 54.892 210.27 57.765 L 210.27 57.765 L 210.27 57.765 Q 212.541 60.637 212.942 63.843 L 212.942 63.843 L 212.942 63.843 Q 212.942 67.851 212.074 70.923 L 212.074 70.923 L 212.074 70.923 Q 211.205 73.996 210.003 76.668 L 210.003 76.668 L 210.003 76.668 Z  M 318.211 172.318 L 276.264 213.998 L 276.264 213.998 Q 273.058 217.204 269.651 219.609 L 269.651 219.609 L 269.651 219.609 Q 266.245 222.014 262.37 222.014 L 262.37 222.014 L 262.37 222.014 Q 259.699 222.014 257.094 220.744 L 257.094 220.744 L 257.094 220.744 Q 254.489 219.475 251.416 216.403 L 251.416 216.403 L 251.416 216.403 Q 247.943 212.929 246.607 210.124 L 246.607 210.124 L 246.607 210.124 Q 245.271 207.319 245.271 204.647 L 245.271 204.647 L 245.271 204.647 Q 245.271 200.773 247.676 197.5 L 247.676 197.5 L 247.676 197.5 Q 250.08 194.227 253.286 191.021 L 253.286 191.021 L 285.882 158.959 L 253.019 126.363 L 253.019 126.363 Q 249.947 123.291 247.609 119.884 L 247.609 119.884 L 247.609 119.884 Q 245.271 116.477 245.271 112.47 L 245.271 112.47 L 245.271 112.47 Q 245.271 109.798 246.54 107.193 L 246.54 107.193 L 246.54 107.193 Q 247.809 104.588 250.882 101.515 L 250.882 101.515 L 250.882 101.515 Q 254.088 98.309 256.893 96.84 L 256.893 96.84 L 256.893 96.84 Q 259.699 95.37 262.37 95.37 L 262.37 95.37 L 262.37 95.37 Q 266.378 95.37 269.651 97.842 L 269.651 97.842 L 269.651 97.842 Q 272.924 100.313 275.997 103.386 L 275.997 103.386 L 317.944 145.066 L 317.944 145.066 Q 321.417 148.539 323.822 151.678 L 323.822 151.678 L 323.822 151.678 Q 326.226 154.818 326.226 158.692 L 326.226 158.692 L 326.226 158.692 Q 326.226 160.829 325.492 162.7 L 325.492 162.7 L 325.492 162.7 Q 324.757 164.57 323.555 166.306 L 323.555 166.306 L 323.555 166.306 Q 322.352 168.043 320.95 169.513 L 320.95 169.513 L 320.95 169.513 Q 319.547 170.982 318.211 172.318 L 318.211 172.318 L 318.211 172.318 Z " fill="rgb(187,82,154)"/><path d=" M 483.023 177.835 L 483.023 177.835 Q 486.579 177.835 488.631 181.118 L 488.631 181.118 L 488.631 181.118 Q 490.683 184.401 490.683 190.146 L 490.683 190.146 L 490.683 190.146 Q 490.683 201.09 485.485 207.109 L 485.485 207.109 L 485.485 207.109 Q 473.721 221.61 459.767 230.912 L 459.767 230.912 L 459.767 230.912 Q 445.814 240.214 427.757 240.214 L 427.757 240.214 L 427.757 240.214 Q 371.944 240.214 371.944 161.693 L 371.944 161.693 L 371.944 161.693 Q 371.944 149.655 372.765 137.343 L 372.765 137.343 L 362.095 137.343 L 362.095 137.343 Q 353.887 137.343 351.014 134.334 L 351.014 134.334 L 351.014 134.334 Q 348.142 131.324 348.142 124.758 L 348.142 124.758 L 348.142 124.758 Q 348.142 109.437 360.453 109.437 L 360.453 109.437 L 376.048 109.437 L 376.048 109.437 Q 380.699 79.342 390.275 54.445 L 390.275 54.445 L 390.275 54.445 Q 399.851 29.548 413.393 14.774 L 413.393 14.774 L 413.393 14.774 Q 426.936 0 442.531 0 L 442.531 0 L 442.531 0 Q 454.022 0 460.588 10.123 L 460.588 10.123 L 460.588 10.123 Q 467.154 20.246 467.154 35.567 L 467.154 35.567 L 467.154 35.567 Q 467.154 77.974 431.587 109.437 L 431.587 109.437 L 462.23 109.437 L 462.23 109.437 Q 466.607 109.437 468.522 111.352 L 468.522 111.352 L 468.522 111.352 Q 470.437 113.267 470.437 118.465 L 470.437 118.465 L 470.437 118.465 Q 470.437 137.343 439.521 137.343 L 439.521 137.343 L 406.143 137.343 L 406.143 137.343 Q 405.596 151.023 405.596 158.683 L 405.596 158.683 L 405.596 158.683 Q 405.596 187.137 412.299 198.628 L 412.299 198.628 L 412.299 198.628 Q 419.002 210.119 433.502 210.119 L 433.502 210.119 L 433.502 210.119 Q 445.267 210.119 454.295 203.005 L 454.295 203.005 L 454.295 203.005 Q 463.324 195.892 475.636 181.665 L 475.636 181.665 L 475.636 181.665 Q 478.919 177.835 483.023 177.835 L 483.023 177.835 L 483.023 177.835 Z  M 435.144 26.265 L 435.144 26.265 Q 431.04 26.265 425.979 36.524 L 425.979 36.524 L 425.979 36.524 Q 420.917 46.784 416.403 64.978 L 416.403 64.978 L 416.403 64.978 Q 411.889 83.172 408.879 105.333 L 408.879 105.333 L 408.879 105.333 Q 425.021 91.38 433.092 74.006 L 433.092 74.006 L 433.092 74.006 Q 441.163 56.633 441.163 42.407 L 441.163 42.407 L 441.163 42.407 Q 441.163 26.265 435.144 26.265 L 435.144 26.265 L 435.144 26.265 Z  M 608.602 178.382 L 608.602 178.382 Q 612.158 178.382 614.21 181.802 L 614.21 181.802 L 614.21 181.802 Q 616.262 185.222 616.262 190.42 L 616.262 190.42 L 616.262 190.42 Q 616.262 196.713 614.347 200.269 L 614.347 200.269 L 614.347 200.269 Q 612.432 203.826 608.328 206.562 L 608.328 206.562 L 555.798 241.855 L 555.798 241.855 Q 545.402 298.489 528.576 330.91 L 528.576 330.91 L 528.576 330.91 Q 511.75 363.33 485.759 363.33 L 485.759 363.33 L 485.759 363.33 Q 471.805 363.33 463.05 354.712 L 463.05 354.712 L 463.05 354.712 Q 454.295 346.094 454.295 332.141 L 454.295 332.141 L 454.295 332.141 Q 454.295 319.282 460.178 305.876 L 460.178 305.876 L 460.178 305.876 Q 466.06 292.47 482.065 275.097 L 482.065 275.097 L 482.065 275.097 Q 498.07 257.724 527.345 235.289 L 527.345 235.289 L 528.165 228.997 L 528.165 228.997 Q 530.081 218.874 532.543 199.996 L 532.543 199.996 L 532.543 199.996 Q 527.071 219.694 517.222 229.954 L 517.222 229.954 L 517.222 229.954 Q 507.372 240.214 496.429 240.214 L 496.429 240.214 L 496.429 240.214 Q 484.117 240.214 476.32 228.86 L 476.32 228.86 L 476.32 228.86 Q 468.522 217.506 468.522 200.543 L 468.522 200.543 L 468.522 200.543 Q 468.522 180.024 471.258 162.924 L 471.258 162.924 L 471.258 162.924 Q 473.994 145.824 480.287 126.673 L 480.287 126.673 L 480.287 126.673 Q 483.023 118.465 487.947 114.909 L 487.947 114.909 L 487.947 114.909 Q 492.872 111.352 503.542 111.352 L 503.542 111.352 L 503.542 111.352 Q 509.561 111.352 511.887 113.267 L 511.887 113.267 L 511.887 113.267 Q 514.212 115.182 514.212 119.012 L 514.212 119.012 L 514.212 119.012 Q 514.212 121.201 511.203 133.786 L 511.203 133.786 L 511.203 133.786 Q 508.467 143.909 506.825 152.117 L 506.825 152.117 L 506.825 152.117 Q 504.636 163.334 502.995 173.594 L 502.995 173.594 L 502.995 173.594 Q 501.353 183.854 501.353 190.42 L 501.353 190.42 L 501.353 190.42 Q 501.353 200.817 507.099 200.817 L 507.099 200.817 L 507.099 200.817 Q 511.203 200.817 517.359 192.609 L 517.359 192.609 L 517.359 192.609 Q 523.514 184.401 530.491 167.712 L 530.491 167.712 L 530.491 167.712 Q 537.468 151.023 544.034 126.673 L 544.034 126.673 L 544.034 126.673 Q 546.223 118.465 550.737 114.909 L 550.737 114.909 L 550.737 114.909 Q 555.251 111.352 564.28 111.352 L 564.28 111.352 L 564.28 111.352 Q 570.572 111.352 573.035 112.993 L 573.035 112.993 L 573.035 112.993 Q 575.497 114.635 575.497 118.465 L 575.497 118.465 L 575.497 118.465 Q 575.497 125.305 568.383 165.523 L 568.383 165.523 L 561.27 209.571 L 561.27 209.571 Q 582.337 193.703 602.309 180.571 L 602.309 180.571 L 602.309 180.571 Q 605.866 178.382 608.602 178.382 L 608.602 178.382 L 608.602 178.382 Z  M 488.768 336.792 L 488.768 336.792 Q 495.608 336.792 504.089 320.924 L 504.089 320.924 L 504.089 320.924 Q 512.571 305.055 521.052 268.12 L 521.052 268.12 L 521.052 268.12 Q 499.985 285.904 490.546 300.541 L 490.546 300.541 L 490.546 300.541 Q 481.108 315.178 481.108 326.122 L 481.108 326.122 L 481.108 326.122 Q 481.108 330.773 482.886 333.782 L 482.886 333.782 L 482.886 333.782 Q 484.664 336.792 488.768 336.792 L 488.768 336.792 L 488.768 336.792 Z  M 748.407 177.835 L 748.407 177.835 Q 751.964 177.835 754.016 181.118 L 754.016 181.118 L 754.016 181.118 Q 756.068 184.401 756.068 190.146 L 756.068 190.146 L 756.068 190.146 Q 756.068 201.09 750.87 207.109 L 750.87 207.109 L 750.87 207.109 Q 739.105 221.61 725.562 230.912 L 725.562 230.912 L 725.562 230.912 Q 712.019 240.214 694.783 240.214 L 694.783 240.214 L 694.783 240.214 Q 680.283 240.214 671.254 229.817 L 671.254 229.817 L 671.254 229.817 Q 655.659 239.94 638.697 240.214 L 638.697 240.214 L 638.697 240.214 Q 635.14 293.017 622.555 328.447 L 622.555 328.447 L 622.555 328.447 Q 609.97 363.878 585.62 363.878 L 585.62 363.878 L 585.62 363.878 Q 570.846 363.878 563.732 353.207 L 563.732 353.207 L 563.732 353.207 Q 556.619 342.537 556.619 323.66 L 556.619 323.66 L 556.619 323.66 Q 556.619 296.847 568.931 261.144 L 568.931 261.144 L 568.931 261.144 Q 581.242 225.44 606.96 182.486 L 606.96 182.486 L 606.96 182.486 Q 606.96 142.541 606.413 126.947 L 606.413 126.947 L 606.413 126.947 Q 606.139 119.012 612.705 114.361 L 612.705 114.361 L 612.705 114.361 Q 619.272 109.71 629.121 109.71 L 629.121 109.71 L 629.121 109.71 Q 634.866 109.71 637.466 112.036 L 637.466 112.036 L 637.466 112.036 Q 640.065 114.361 640.338 121.201 L 640.338 121.201 L 640.338 121.201 Q 640.338 128.041 640.612 131.324 L 640.612 131.324 L 640.612 131.324 Q 649.367 120.38 657.848 115.593 L 657.848 115.593 L 657.848 115.593 Q 666.33 110.805 675.905 110.805 L 675.905 110.805 L 675.905 110.805 Q 691.226 110.805 700.939 123.116 L 700.939 123.116 L 700.939 123.116 Q 710.652 135.428 710.652 155.4 L 710.652 155.4 L 710.652 155.4 Q 710.652 169.901 706 183.58 L 706 183.58 L 706 183.58 Q 701.349 197.26 693.142 208.477 L 693.142 208.477 L 693.142 208.477 Q 698.887 210.119 702.717 210.119 L 702.717 210.119 L 702.717 210.119 Q 711.746 210.119 719.954 203.552 L 719.954 203.552 L 719.954 203.552 Q 728.161 196.986 741.02 181.665 L 741.02 181.665 L 741.02 181.665 Q 744.303 177.835 748.407 177.835 L 748.407 177.835 L 748.407 177.835 Z  M 640.065 213.949 L 640.065 213.949 Q 649.914 211.76 658.259 203.142 L 658.259 203.142 L 658.259 203.142 Q 666.603 194.524 671.528 181.802 L 671.528 181.802 L 671.528 181.802 Q 676.452 169.08 676.452 155.127 L 676.452 155.127 L 676.452 155.127 Q 676.452 146.919 673.169 142.678 L 673.169 142.678 L 673.169 142.678 Q 669.886 138.437 664.414 138.437 L 664.414 138.437 L 664.414 138.437 Q 654.565 138.437 640.612 159.23 L 640.612 159.23 L 640.612 159.23 Q 640.338 171.269 640.338 194.524 L 640.338 194.524 L 640.338 194.524 Q 640.338 207.109 640.065 213.949 L 640.065 213.949 L 640.065 213.949 Z  M 587.809 337.066 L 587.809 337.066 Q 595.196 337.066 600.12 304.918 L 600.12 304.918 L 600.12 304.918 Q 605.045 272.771 606.413 224.893 L 606.413 224.893 L 606.413 224.893 Q 594.648 252.252 587.809 277.149 L 587.809 277.149 L 587.809 277.149 Q 580.969 302.046 580.969 319.008 L 580.969 319.008 L 580.969 319.008 Q 580.969 327.763 583.021 332.414 L 583.021 332.414 L 583.021 332.414 Q 585.073 337.066 587.809 337.066 L 587.809 337.066 L 587.809 337.066 Z  M 855.929 177.835 L 855.929 177.835 Q 859.486 177.835 861.538 181.118 L 861.538 181.118 L 861.538 181.118 Q 863.59 184.401 863.59 190.146 L 863.59 190.146 L 863.59 190.146 Q 863.59 201.09 858.391 207.109 L 858.391 207.109 L 858.391 207.109 Q 848.269 219.421 829.801 229.817 L 829.801 229.817 L 829.801 229.817 Q 811.334 240.214 790.267 240.214 L 790.267 240.214 L 790.267 240.214 Q 761.54 240.214 745.671 224.619 L 745.671 224.619 L 745.671 224.619 Q 729.803 209.024 729.803 181.939 L 729.803 181.939 L 729.803 181.939 Q 729.803 163.061 737.737 146.782 L 737.737 146.782 L 737.737 146.782 Q 745.671 130.503 759.761 120.928 L 759.761 120.928 L 759.761 120.928 Q 773.851 111.352 791.635 111.352 L 791.635 111.352 L 791.635 111.352 Q 807.503 111.352 817.079 120.791 L 817.079 120.791 L 817.079 120.791 Q 826.655 130.23 826.655 146.372 L 826.655 146.372 L 826.655 146.372 Q 826.655 165.25 813.112 178.792 L 813.112 178.792 L 813.112 178.792 Q 799.569 192.335 767.285 200.269 L 767.285 200.269 L 767.285 200.269 Q 774.125 212.855 793.276 212.855 L 793.276 212.855 L 793.276 212.855 Q 805.588 212.855 821.32 204.236 L 821.32 204.236 L 821.32 204.236 Q 837.051 195.618 848.542 181.665 L 848.542 181.665 L 848.542 181.665 Q 851.825 177.835 855.929 177.835 L 855.929 177.835 L 855.929 177.835 Z  M 786.984 138.164 L 786.984 138.164 Q 776.861 138.164 769.884 149.928 L 769.884 149.928 L 769.884 149.928 Q 762.908 161.693 762.908 178.382 L 762.908 178.382 L 762.908 178.929 L 762.908 178.929 Q 779.05 175.099 788.352 167.438 L 788.352 167.438 L 788.352 167.438 Q 797.654 159.778 797.654 149.655 L 797.654 149.655 L 797.654 149.655 Q 797.654 144.457 794.781 141.31 L 794.781 141.31 L 794.781 141.31 Q 791.908 138.164 786.984 138.164 L 786.984 138.164 L 786.984 138.164 Z " fill="rgb(82,187,173)"/></g></g></g></g></svg>